name C:\Users\u0101727\Documents\MyRepositories\upper-imu-dc\OpenSim\subject0\MA\ResultsMA\grid_4nodes_9dim\angles_17.mot
datacolumns 10
datarows 23
range 1725.01000000 1725.23000000
endheader 
time	clav_prot	clav_elev	scapula_abduction	scapula_elevation	scapula_upward_rot	scapula_winging	plane_elv	shoulder_elv	axial_rot	
       1725.01000000	        -50.00000000	          0.00000000	        -21.66666667	         10.00000000	         30.00000000	        -20.00000000	         30.00000000	         63.33333333	         30.00000000	
       1725.02000000	        -38.33333333	          0.00000000	        -21.66666667	         10.00000000	         30.00000000	        -20.00000000	         30.00000000	         63.33333333	         30.00000000	
       1725.03000000	        -26.66666667	          0.00000000	        -21.66666667	         10.00000000	         30.00000000	        -20.00000000	         30.00000000	         63.33333333	         30.00000000	
       1725.04000000	        -15.00000000	          0.00000000	        -21.66666667	         10.00000000	         30.00000000	        -20.00000000	         30.00000000	         63.33333333	         30.00000000	
       1725.05000000	        -50.00000000	         10.00000000	        -21.66666667	         10.00000000	         30.00000000	        -20.00000000	         30.00000000	         63.33333333	         30.00000000	
       1725.06000000	        -38.33333333	         10.00000000	        -21.66666667	         10.00000000	         30.00000000	        -20.00000000	         30.00000000	         63.33333333	         30.00000000	
       1725.07000000	        -26.66666667	         10.00000000	        -21.66666667	         10.00000000	         30.00000000	        -20.00000000	         30.00000000	         63.33333333	         30.00000000	
       1725.08000000	        -15.00000000	         10.00000000	        -21.66666667	         10.00000000	         30.00000000	        -20.00000000	         30.00000000	         63.33333333	         30.00000000	
       1725.09000000	        -50.00000000	         20.00000000	        -21.66666667	         10.00000000	         30.00000000	        -20.00000000	         30.00000000	         63.33333333	         30.00000000	
       1725.10000000	        -38.33333333	         20.00000000	        -21.66666667	         10.00000000	         30.00000000	        -20.00000000	         30.00000000	         63.33333333	         30.00000000	
       1725.11000000	        -26.66666667	         20.00000000	        -21.66666667	         10.00000000	         30.00000000	        -20.00000000	         30.00000000	         63.33333333	         30.00000000	
       1725.12000000	        -15.00000000	         20.00000000	        -21.66666667	         10.00000000	         30.00000000	        -20.00000000	         30.00000000	         63.33333333	         30.00000000	
       1725.13000000	        -50.00000000	        -10.00000000	         -3.33333333	         10.00000000	         30.00000000	        -20.00000000	         30.00000000	         63.33333333	         30.00000000	
       1725.14000000	        -38.33333333	        -10.00000000	         -3.33333333	         10.00000000	         30.00000000	        -20.00000000	         30.00000000	         63.33333333	         30.00000000	
       1725.15000000	        -26.66666667	        -10.00000000	         -3.33333333	         10.00000000	         30.00000000	        -20.00000000	         30.00000000	         63.33333333	         30.00000000	
       1725.16000000	        -15.00000000	        -10.00000000	         -3.33333333	         10.00000000	         30.00000000	        -20.00000000	         30.00000000	         63.33333333	         30.00000000	
       1725.17000000	        -50.00000000	          0.00000000	         -3.33333333	         10.00000000	         30.00000000	        -20.00000000	         30.00000000	         63.33333333	         30.00000000	
       1725.18000000	        -38.33333333	          0.00000000	         -3.33333333	         10.00000000	         30.00000000	        -20.00000000	         30.00000000	         63.33333333	         30.00000000	
       1725.19000000	        -26.66666667	          0.00000000	         -3.33333333	         10.00000000	         30.00000000	        -20.00000000	         30.00000000	         63.33333333	         30.00000000	
       1725.20000000	        -15.00000000	          0.00000000	         -3.33333333	         10.00000000	         30.00000000	        -20.00000000	         30.00000000	         63.33333333	         30.00000000	
       1725.21000000	        -50.00000000	         10.00000000	         -3.33333333	         10.00000000	         30.00000000	        -20.00000000	         30.00000000	         63.33333333	         30.00000000	
       1725.22000000	        -38.33333333	         10.00000000	         -3.33333333	         10.00000000	         30.00000000	        -20.00000000	         30.00000000	         63.33333333	         30.00000000	
       1725.23000000	        -26.66666667	         10.00000000	         -3.33333333	         10.00000000	         30.00000000	        -20.00000000	         30.00000000	         63.33333333	         30.00000000	
